<svg xmlns="http://www.w3.org/2000/svg" viewBox="0 0 280 280">
  <defs>
    <linearGradient id="desert" x1="0%" y1="0%" x2="0%" y2="100%">
      <stop offset="0%" style="stop-color:#1a0a2e"/>
      <stop offset="40%" style="stop-color:#2d1a4a"/>
      <stop offset="70%" style="stop-color:#8b4513"/>
      <stop offset="100%" style="stop-color:#c8780a"/>
    </linearGradient>
    <radialGradient id="sun" cx="50%" cy="40%" r="20%">
      <stop offset="0%" style="stop-color:#ffd700;stop-opacity:0.9"/>
      <stop offset="100%" style="stop-color:#ff8c00;stop-opacity:0"/>
    </radialGradient>
    <filter id="haze"><feGaussianBlur stdDeviation="2"/></filter>
  </defs>
  <rect width="280" height="280" fill="url(#desert)"/>
  <circle cx="40"  cy="30"  r="1.2" fill="white" opacity="0.7"/>
  <circle cx="90"  cy="20"  r="0.8" fill="white" opacity="0.5"/>
  <circle cx="150" cy="15"  r="1"   fill="white" opacity="0.6"/>
  <circle cx="210" cy="25"  r="0.8" fill="white" opacity="0.5"/>
  <circle cx="255" cy="18"  r="1.2" fill="white" opacity="0.7"/>
  <circle cx="140" cy="105" r="50"  fill="url(#sun)"/>
  <line x1="0"   y1="175" x2="280" y2="175" stroke="#c8780a" stroke-width="1" opacity="0.3"/>
  <line x1="20"  y1="180" x2="260" y2="180" stroke="#daa520" stroke-width="0.8" opacity="0.2"/>
  <path d="M0 200 Q70 165 140 190 Q210 215 280 185 L280 280 L0 280 Z" fill="#7a4010" opacity="0.8"/>
  <path d="M0 220 Q50 205 110 215 Q170 225 220 210 Q250 205 280 212 L280 280 L0 280 Z" fill="#5a2e08" opacity="0.9"/>
  <ellipse cx="140" cy="190" rx="18" ry="6" fill="#c8780a" opacity="0.4" filter="url(#haze)"/>
  <text x="140" y="248" font-family="serif" font-size="30" fill="#ffd700" text-anchor="middle" font-weight="bold" opacity="0.9">신기루</text>
  <text x="140" y="268" font-family="sans-serif" font-size="13" fill="#daa520" text-anchor="middle" letter-spacing="3" opacity="0.8">씨잼</text>
</svg>
